<mxfile host="app.diagrams.net" agent="Mozilla/5.0 (Macintosh; Intel Mac OS X 10_15_7) AppleWebKit/537.36 (KHTML, like Gecko) Chrome/131.0.0.0 Safari/537.36" version="26.0.2">
  <diagram name="Page-1" id="_8MPyE5WNqKA1sCtm9TE">
    <mxGraphModel dx="1151" dy="841" grid="1" gridSize="10" guides="1" tooltips="1" connect="1" arrows="1" fold="1" page="1" pageScale="1" pageWidth="850" pageHeight="1100" math="0" shadow="0">
      <root>
        <mxCell id="0" />
        <mxCell id="1" parent="0" />
        <mxCell id="m4WeTGAv3WeBCf6Rpnrq-9" style="edgeStyle=orthogonalEdgeStyle;rounded=0;orthogonalLoop=1;jettySize=auto;html=1;exitX=1;exitY=0.5;exitDx=0;exitDy=0;strokeWidth=2;endArrow=none;endFill=0;" edge="1" parent="1" source="m4WeTGAv3WeBCf6Rpnrq-10" target="m4WeTGAv3WeBCf6Rpnrq-11">
          <mxGeometry relative="1" as="geometry" />
        </mxCell>
        <mxCell id="m4WeTGAv3WeBCf6Rpnrq-10" value="&lt;font style=&quot;font-size: 30px;&quot; face=&quot;Georgia&quot;&gt;A&lt;/font&gt;" style="ellipse;whiteSpace=wrap;html=1;aspect=fixed;" vertex="1" parent="1">
          <mxGeometry x="360" y="200" width="60" height="60" as="geometry" />
        </mxCell>
        <mxCell id="m4WeTGAv3WeBCf6Rpnrq-11" value="&lt;font face=&quot;Georgia&quot;&gt;&lt;span style=&quot;font-size: 30px;&quot;&gt;B&lt;/span&gt;&lt;/font&gt;" style="ellipse;whiteSpace=wrap;html=1;aspect=fixed;" vertex="1" parent="1">
          <mxGeometry x="520" y="200" width="60" height="60" as="geometry" />
        </mxCell>
        <mxCell id="m4WeTGAv3WeBCf6Rpnrq-12" value="&lt;font face=&quot;Georgia&quot;&gt;&lt;span style=&quot;font-size: 30px;&quot;&gt;C&lt;/span&gt;&lt;/font&gt;" style="ellipse;whiteSpace=wrap;html=1;aspect=fixed;" vertex="1" parent="1">
          <mxGeometry x="440" y="320" width="60" height="60" as="geometry" />
        </mxCell>
        <mxCell id="m4WeTGAv3WeBCf6Rpnrq-13" value="" style="endArrow=none;html=1;rounded=0;exitX=0.5;exitY=1;exitDx=0;exitDy=0;strokeWidth=2;endFill=0;" edge="1" parent="1" source="m4WeTGAv3WeBCf6Rpnrq-11" target="m4WeTGAv3WeBCf6Rpnrq-12">
          <mxGeometry width="50" height="50" relative="1" as="geometry">
            <mxPoint x="800" y="380" as="sourcePoint" />
            <mxPoint x="850" y="330" as="targetPoint" />
          </mxGeometry>
        </mxCell>
        <mxCell id="m4WeTGAv3WeBCf6Rpnrq-14" value="" style="endArrow=none;html=1;rounded=0;strokeWidth=2;entryX=0.5;entryY=1;entryDx=0;entryDy=0;exitX=0;exitY=0;exitDx=0;exitDy=0;endFill=0;" edge="1" parent="1" source="m4WeTGAv3WeBCf6Rpnrq-12" target="m4WeTGAv3WeBCf6Rpnrq-10">
          <mxGeometry width="50" height="50" relative="1" as="geometry">
            <mxPoint x="410" y="350" as="sourcePoint" />
            <mxPoint x="518" y="342" as="targetPoint" />
          </mxGeometry>
        </mxCell>
        <mxCell id="m4WeTGAv3WeBCf6Rpnrq-15" value="" style="group" vertex="1" connectable="0" parent="1">
          <mxGeometry x="60" y="200" width="220" height="180" as="geometry" />
        </mxCell>
        <mxCell id="m4WeTGAv3WeBCf6Rpnrq-4" style="edgeStyle=orthogonalEdgeStyle;rounded=0;orthogonalLoop=1;jettySize=auto;html=1;exitX=1;exitY=0.5;exitDx=0;exitDy=0;strokeWidth=2;" edge="1" parent="m4WeTGAv3WeBCf6Rpnrq-15" source="m4WeTGAv3WeBCf6Rpnrq-1" target="m4WeTGAv3WeBCf6Rpnrq-2">
          <mxGeometry relative="1" as="geometry" />
        </mxCell>
        <mxCell id="m4WeTGAv3WeBCf6Rpnrq-1" value="&lt;font style=&quot;font-size: 30px;&quot; face=&quot;Georgia&quot;&gt;A&lt;/font&gt;" style="ellipse;whiteSpace=wrap;html=1;aspect=fixed;" vertex="1" parent="m4WeTGAv3WeBCf6Rpnrq-15">
          <mxGeometry width="60" height="60" as="geometry" />
        </mxCell>
        <mxCell id="m4WeTGAv3WeBCf6Rpnrq-2" value="&lt;font face=&quot;Georgia&quot;&gt;&lt;span style=&quot;font-size: 30px;&quot;&gt;B&lt;/span&gt;&lt;/font&gt;" style="ellipse;whiteSpace=wrap;html=1;aspect=fixed;" vertex="1" parent="m4WeTGAv3WeBCf6Rpnrq-15">
          <mxGeometry x="160" width="60" height="60" as="geometry" />
        </mxCell>
        <mxCell id="m4WeTGAv3WeBCf6Rpnrq-3" value="&lt;font face=&quot;Georgia&quot;&gt;&lt;span style=&quot;font-size: 30px;&quot;&gt;C&lt;/span&gt;&lt;/font&gt;" style="ellipse;whiteSpace=wrap;html=1;aspect=fixed;" vertex="1" parent="m4WeTGAv3WeBCf6Rpnrq-15">
          <mxGeometry x="80" y="120" width="60" height="60" as="geometry" />
        </mxCell>
        <mxCell id="m4WeTGAv3WeBCf6Rpnrq-7" value="" style="endArrow=classic;html=1;rounded=0;exitX=0.5;exitY=1;exitDx=0;exitDy=0;strokeWidth=2;" edge="1" parent="m4WeTGAv3WeBCf6Rpnrq-15" source="m4WeTGAv3WeBCf6Rpnrq-2" target="m4WeTGAv3WeBCf6Rpnrq-3">
          <mxGeometry width="50" height="50" relative="1" as="geometry">
            <mxPoint x="440" y="180" as="sourcePoint" />
            <mxPoint x="490" y="130" as="targetPoint" />
          </mxGeometry>
        </mxCell>
        <mxCell id="m4WeTGAv3WeBCf6Rpnrq-8" value="" style="endArrow=classic;html=1;rounded=0;strokeWidth=2;entryX=0.5;entryY=1;entryDx=0;entryDy=0;exitX=0;exitY=0;exitDx=0;exitDy=0;" edge="1" parent="m4WeTGAv3WeBCf6Rpnrq-15" source="m4WeTGAv3WeBCf6Rpnrq-3" target="m4WeTGAv3WeBCf6Rpnrq-1">
          <mxGeometry width="50" height="50" relative="1" as="geometry">
            <mxPoint x="50" y="150" as="sourcePoint" />
            <mxPoint x="158" y="142" as="targetPoint" />
          </mxGeometry>
        </mxCell>
        <mxCell id="m4WeTGAv3WeBCf6Rpnrq-17" value="&lt;font style=&quot;font-size: 30px;&quot; face=&quot;Georgia&quot;&gt;A&lt;/font&gt;" style="ellipse;whiteSpace=wrap;html=1;aspect=fixed;" vertex="1" parent="1">
          <mxGeometry x="660" y="200" width="60" height="60" as="geometry" />
        </mxCell>
        <mxCell id="m4WeTGAv3WeBCf6Rpnrq-18" value="&lt;font face=&quot;Georgia&quot;&gt;&lt;span style=&quot;font-size: 30px;&quot;&gt;B&lt;/span&gt;&lt;/font&gt;" style="ellipse;whiteSpace=wrap;html=1;aspect=fixed;" vertex="1" parent="1">
          <mxGeometry x="820" y="200" width="60" height="60" as="geometry" />
        </mxCell>
        <mxCell id="m4WeTGAv3WeBCf6Rpnrq-19" value="&lt;font face=&quot;Georgia&quot;&gt;&lt;span style=&quot;font-size: 30px;&quot;&gt;C&lt;/span&gt;&lt;/font&gt;" style="ellipse;whiteSpace=wrap;html=1;aspect=fixed;" vertex="1" parent="1">
          <mxGeometry x="740" y="320" width="60" height="60" as="geometry" />
        </mxCell>
        <mxCell id="m4WeTGAv3WeBCf6Rpnrq-23" value="" style="endArrow=oval;html=1;rounded=0;strokeWidth=2;endFill=0;startArrow=oval;startFill=0;endSize=10;startSize=10;" edge="1" parent="1">
          <mxGeometry width="50" height="50" relative="1" as="geometry">
            <mxPoint x="698" y="265" as="sourcePoint" />
            <mxPoint x="746" y="323" as="targetPoint" />
          </mxGeometry>
        </mxCell>
        <mxCell id="m4WeTGAv3WeBCf6Rpnrq-24" value="" style="endArrow=oval;html=1;rounded=0;strokeWidth=2;endFill=0;startArrow=oval;startFill=0;endSize=10;startSize=10;exitX=1;exitY=0.5;exitDx=0;exitDy=0;jumpSize=3;fontSize=10;spacing=1;" edge="1" parent="1">
          <mxGeometry width="50" height="50" relative="1" as="geometry">
            <mxPoint x="726" y="231" as="sourcePoint" />
            <mxPoint x="814" y="231" as="targetPoint" />
          </mxGeometry>
        </mxCell>
        <mxCell id="m4WeTGAv3WeBCf6Rpnrq-25" value="" style="endArrow=oval;html=1;rounded=0;strokeWidth=2;endFill=0;startArrow=oval;startFill=0;endSize=10;startSize=10;exitX=0.279;exitY=0.981;exitDx=0;exitDy=0;exitPerimeter=0;" edge="1" parent="1">
          <mxGeometry width="50" height="50" relative="1" as="geometry">
            <mxPoint x="841.74" y="264.86" as="sourcePoint" />
            <mxPoint x="796" y="326" as="targetPoint" />
          </mxGeometry>
        </mxCell>
      </root>
    </mxGraphModel>
  </diagram>
</mxfile>
